<svg width="98" height="55" viewBox="0 0 98 55" fill="none" xmlns="http://www.w3.org/2000/svg">
<path d="M16.5269 46.1035V47.0655L15.6525 47.4668L2.90224 53.3185H23.0103H70.5711C84.8456 53.3185 96.4429 41.7211 96.4429 27.4467C96.4429 13.0947 84.8429 1.5 70.5711 1.5H42.3987C28.1242 1.5 16.5269 13.0973 16.5269 27.3718V46.0344V46.1035Z" fill="white" stroke="black" stroke-width="3"/>
<path d="M37.5108 28.0976C37.5108 29.5586 38.6909 30.739 40.1465 30.739C41.6048 30.739 42.788 29.5559 42.788 28.0976C42.788 26.642 41.6075 25.4618 40.1465 25.4618C38.6882 25.4618 37.5108 26.6392 37.5108 28.0976Z" fill="#2C2C2C" stroke="black" stroke-width="3"/>
<path d="M53.2645 28.0976C53.2645 29.5586 54.4446 30.739 55.9002 30.739C57.363 30.739 58.5417 29.5572 58.5417 28.0976C58.5417 26.6406 57.3657 25.4618 55.9002 25.4618C54.4419 25.4618 53.2645 26.6392 53.2645 28.0976Z" fill="#2C2C2C" stroke="black" stroke-width="3"/>
<path d="M68.9492 28.0976C68.9492 29.5586 70.1293 30.739 71.5849 30.739C73.0432 30.739 74.2264 29.5559 74.2264 28.0976C74.2264 26.642 73.0459 25.4618 71.5849 25.4618C70.1266 25.4618 68.9492 26.6392 68.9492 28.0976Z" fill="#2C2C2C" stroke="black" stroke-width="3"/>
</svg>
