<svg width="175" height="140" viewBox="0 0 175 140" fill="none" xmlns="http://www.w3.org/2000/svg">
<path d="M1.0121 139.976C1.30333 120.721 15.4383 106.586 35.9128 109.022C35.9128 109.022 38.7871 88.7963 59.3079 95.8617C59.3079 95.8617 68.5681 71.2003 93.9132 71.002C120.626 70.7614 132.325 92.692 133.153 105.464C133.153 105.464 171.316 100.006 174.73 139.976H1.0121Z" fill="#FFC430"/>
<path opacity="0.3" d="M133.153 105.464C133.005 103.37 132.566 101.028 131.836 98.5418C106.685 115.458 77.6341 98.4954 77.6341 98.4954C69.6401 114.969 42.2944 137.731 7.00546 123.013C6.61716 122.815 6.17821 122.671 5.78991 122.477C2.76792 127.398 1.05855 133.345 0.961472 139.925H174.73C171.316 100.006 133.153 105.464 133.153 105.464Z" fill="#888786"/>
<path d="M133.153 105.468C126.476 106.835 119.942 112.343 118.334 116.678" stroke="#505050" stroke-width="4" stroke-linecap="round" stroke-linejoin="round"/>
<path d="M59.2573 95.8617C58.0417 98.736 57.1638 101.809 56.7713 104.881" stroke="#505050" stroke-width="4" stroke-linecap="round" stroke-linejoin="round"/>
<path d="M35.8621 109.022C43.6113 109.752 47.5112 114.627 47.5112 114.627" stroke="#505050" stroke-width="4" stroke-linecap="round" stroke-linejoin="round"/>
<path d="M88.7386 117.856C97.2728 116.058 102.958 108.743 101.434 101.526C99.9149 94.3127 91.7606 89.919 83.2264 91.717C74.6922 93.5192 69.007 100.829 70.5265 108.047C72.0543 115.26 80.2044 119.654 88.7386 117.856Z" fill="#FFE6A0"/>
<path d="M86.6114 107.789C88.5613 107.38 89.8571 105.704 89.5068 104.041C89.1607 102.383 87.2951 101.37 85.3452 101.783C83.3995 102.193 82.1037 103.872 82.4498 105.531C82.8001 107.19 84.6699 108.203 86.6114 107.789Z" fill="#5C5747"/>
</svg>
