<svg width="61" height="92" viewBox="0 0 61 92" fill="none" xmlns="http://www.w3.org/2000/svg">
<path d="M54.2997 69.372C54.3422 59.2023 47.9187 50.1215 38.3408 46.7648C37.8963 46.6075 37.669 46.108 37.8263 45.6659C37.9013 45.4162 38.1086 45.2214 38.3433 45.1415C47.9561 41.8298 54.3996 32.7764 54.4221 22.5992L54.4596 2.18731L6.67277 2.05743L6.62532 22.4918C6.61283 32.6491 13.0164 41.7199 22.5842 45.099C23.0288 45.2539 23.256 45.7559 23.1212 46.2079C23.0463 46.4552 22.839 46.65 22.6017 46.7324C12.9914 50.044 6.5454 59.0949 6.51293 69.2447L6.46548 89.6766L54.2523 89.8064L54.2997 69.372Z" fill="#30C1FF"/>
<path d="M47.8063 77.4888L47.7963 83.7875L12.9215 83.7026L12.9439 68.8001C12.9589 67.0269 13.2237 65.2562 13.7606 63.5704L47.8063 77.4888Z" fill="#61A9FF"/>
<path opacity="0.2" d="M28.9328 69.7741L39.627 77.856L39.622 83.7725L47.7963 83.7875L47.8063 77.4889L28.9328 69.7741Z" fill="#181818"/>
<path d="M30.4713 40.4737C20.8285 40.4437 13.0538 32.6141 13.0763 22.9938L13.6507 13.4385L47.4591 27.262C45.5086 35.0117 38.4982 40.4787 30.4713 40.4737Z" fill="#61A9FF"/>
<path opacity="0.2" d="M47.4542 27.2695L40.2489 24.325C38.3034 32.0647 31.2929 37.5317 23.266 37.5267C22.327 37.5242 21.3929 37.4467 20.4863 37.3044C23.306 39.2974 26.7375 40.4712 30.4713 40.4737C38.4982 40.4787 45.5086 35.0117 47.4542 27.2695Z" fill="#181818"/>
<path d="M2 89.6616L58.5954 89.8114" stroke="black" stroke-width="4" stroke-linecap="round" stroke-linejoin="round"/>
<path d="M2.42706 2L59 2.13986" stroke="black" stroke-width="4" stroke-linecap="round" stroke-linejoin="round"/>
<path d="M27.3544 27.3195C37.7364 31.5652 45.2863 29.9568 46.4776 26.8674L14.4449 13.7706C13.5558 19.2601 17.6667 23.3585 27.3544 27.3195Z" fill="white"/>
<path d="M28.0387 77.7411C37.9212 81.782 47.8063 77.4889 47.4092 77.339L14.6372 63.94C13.7307 63.7103 17.9389 73.6103 28.0387 77.7411Z" fill="white"/>
</svg>
